# xmcd CD database file
#
# Track frame offsets:
#	150
#	20393
#	40896
#	63936
#	94369
#	119348
#	141350
#	165301
#	189331
#	205705
#	235193
#	261448
#
# Disc length: 3767 seconds
#
# Revision: 0
# Processed by: cddbd v1.5.2PL0 Copyright (c) Steve Scherf et al.
# Submitted via: CDex 1.70beta2
#
DISCID=a20eb50c
DTITLE=Koko Taylor - Old School
DYEAR=1900
DGENRE=Blues
TTITLE0=Piece Of Man
TTITLE1=Gonna Buy Me A Mule
TTITLE2=Black Rat
TTITLE3=Money Is The Name Of The Game
TTITLE4=You Ain't Worth A Good Woman
TTITLE5=Better Watch Your Step
TTITLE6=Bad Avenue
TTITLE7=Bad Rooster
TTITLE8=Don't Go No Further
TTITLE9=All Your Love
TTITLE10=Hard Pill To Swallow
TTITLE11=Young Fashioned Ways
EXTD=
EXTT0=
EXTT1=
EXTT2=
EXTT3=
EXTT4=
EXTT5=
EXTT6=
EXTT7=
EXTT8=
EXTT9=
EXTT10=
EXTT11=
PLAYORDER=
